HIERARCHY
ROOT Hips
{
	OFFSET 0.00000 0.00000 0.00000
	CHANNELS 6 Xposition Yposition Zposition Zrotation Yrotation Xrotation 
	JOINT LHipJoint
	{
		OFFSET 0 0 0
		CHANNELS 3 Zrotation Yrotation Xrotation
		JOINT LeftUpLeg
		{
			OFFSET 1.55766 -1.60504 1.11378
			CHANNELS 3 Zrotation Yrotation Xrotation
			JOINT LeftLeg
			{
				OFFSET 2.29047 -6.29302 0.00000
				CHANNELS 3 Zrotation Yrotation Xrotation
				JOINT LeftFoot
				{
					OFFSET 2.52265 -6.93093 0.00000
					CHANNELS 3 Zrotation Yrotation Xrotation
					JOINT LeftToeBase
					{
						OFFSET 0.17633 -0.48446 2.02656
						CHANNELS 3 Zrotation Yrotation Xrotation
						End Site
						{
							OFFSET 0.00000 -0.00000 1.04989
						}
					}
				}
			}
		}
	}
	JOINT RHipJoint
	{
		OFFSET 0 0 0
		CHANNELS 3 Zrotation Yrotation Xrotation
		JOINT RightUpLeg
		{
			OFFSET -1.48599 -1.60504 1.11378
			CHANNELS 3 Zrotation Yrotation Xrotation
			JOINT RightLeg
			{
				OFFSET -2.27280 -6.24448 0.00000
				CHANNELS 3 Zrotation Yrotation Xrotation
				JOINT RightFoot
				{
					OFFSET -2.50834 -6.89161 0.00000
					CHANNELS 3 Zrotation Yrotation Xrotation
					JOINT RightToeBase
					{
						OFFSET -0.26967 -0.74090 2.08741
						CHANNELS 3 Zrotation Yrotation Xrotation
						End Site
						{
							OFFSET -0.00000 -0.00000 1.10614
						}
					}
				}
			}
		}
	}
	JOINT LowerBack
	{
		OFFSET 0 0 0
		CHANNELS 3 Zrotation Yrotation Xrotation
		JOINT Spine
		{
			OFFSET 0.06481 2.02437 -0.08472
			CHANNELS 3 Zrotation Yrotation Xrotation
			JOINT Spine1
			{
				OFFSET 0.00015 1.96711 0.18069
				CHANNELS 3 Zrotation Yrotation Xrotation
				JOINT Neck
				{
					OFFSET 0 0 0
					CHANNELS 3 Zrotation Yrotation Xrotation
					JOINT Neck1
					{
						OFFSET -0.29961 1.68293 -0.13041
						CHANNELS 3 Zrotation Yrotation Xrotation
						JOINT Head
						{
							OFFSET 0.59697 1.61501 -0.14669
							CHANNELS 3 Zrotation Yrotation Xrotation
							End Site
							{
								OFFSET 0.22973 1.74906 -0.10148
							}
						}
					}
				}
				JOINT LeftShoulder
				{
					OFFSET 0 0 0
					CHANNELS 3 Zrotation Yrotation Xrotation
					JOINT LeftArm
					{
						OFFSET 3.37968 1.02893 0.31147
						CHANNELS 3 Zrotation Yrotation Xrotation
						JOINT LeftForeArm
						{
							OFFSET 5.19807 -0.00000 -0.00000
							CHANNELS 3 Zrotation Yrotation Xrotation
							JOINT LeftHand
							{
								OFFSET 3.09370 -0.00000 -0.00000
								CHANNELS 3 Zrotation Yrotation Xrotation
								JOINT LeftFingerBase
								{
									OFFSET 0 0 0
									CHANNELS 3 Zrotation Yrotation Xrotation
									JOINT LeftHandIndex1
									{
										OFFSET 0.67263 -0.00000 -0.00000
										CHANNELS 3 Zrotation Yrotation Xrotation
										End Site
										{
											OFFSET 0.54229 -0.00000 -0.00000
										}
									}
								}
								JOINT LThumb
								{
									OFFSET 0 0 0
									CHANNELS 3 Zrotation Yrotation Xrotation
									End Site
									{
										OFFSET 0.55057 -0.00000 0.55057
									}
								}
							}
						}
					}
				}
				JOINT RightShoulder
				{
					OFFSET 0 0 0
					CHANNELS 3 Zrotation Yrotation Xrotation
					JOINT RightArm
					{
						OFFSET -3.38254 0.96355 -0.16120
						CHANNELS 3 Zrotation Yrotation Xrotation
						JOINT RightForeArm
						{
							OFFSET -5.45222 -0.00000 -0.00000
							CHANNELS 3 Zrotation Yrotation Xrotation
							JOINT RightHand
							{
								OFFSET -3.01284 -0.00000 -0.00000
								CHANNELS 3 Zrotation Yrotation Xrotation
								JOINT RightFingerBase
								{
									OFFSET 0 0 0
									CHANNELS 3 Zrotation Yrotation Xrotation
									JOINT RightHandIndex1
									{
										OFFSET -0.62230 -0.00000 -0.00000
										CHANNELS 3 Zrotation Yrotation Xrotation
										End Site
										{
											OFFSET -0.50171 -0.00000 -0.00000
										}
									}
								}
								JOINT RThumb
								{
									OFFSET 0 0 0
									CHANNELS 3 Zrotation Yrotation Xrotation
									End Site
									{
										OFFSET -0.50937 -0.00000 0.50937
									}
								}
							}
						}
					}
				}
			}
		}
	}
}
MOTION
Frames: 6
Frame Time: 0.0253165
0.00 0.00 0.00 11.0940 -4.1089 -93.8350 0.0000 0.0000 0.0000 -24.6223 -14.2450 17.8376 0.0000 0.0000 0.0000 2.8223 -5.7282 34.1302 0.3092 3.5747 9.8832 0.0000 0.0000 0.0000 -10.5943 -11.8520 -65.2035 -31.7825 -16.2769 126.6578 0.4094 19.2370 23.6462 -0.1826 2.7519 -7.5889 2.1508 -5.7516 15.5592 -1.6032 -7.6897 9.0995 -1.7193 -3.9051 0.5074 -33.9795 -4.4815 37.7124 34.9542 -20.7888 -1.3506 19.0981 -13.8194 1.7594 -0.0000 0.0000 0.0000 -85.0264 -23.6592 66.2856 52.3762 -53.9100 -28.0833 -0.0000 0.0000 -22.7430 10.2959 -22.6384 -3.9997 -7.1250 0.0000 -0.0000 -11.6630 7.3960 10.2856 -0.0000 0.0000 0.0000 71.8413 19.0086 14.2017 -10.6348 17.7264 -1.6630 0.0000 0.0000 38.2286 -10.4594 -7.6796 1.4132 7.1250 -0.0000 -0.0000 13.8877 -37.4520 2.6417
0.00 0.00 0.00 15.5192 -2.4160 -94.0738 0.0000 0.0000 0.0000 -25.7350 -11.2691 17.2867 0.0000 0.0000 0.0000 3.2420 -5.6956 36.3393 0.2975 3.5072 9.6943 0.0000 0.0000 0.0000 -9.2512 -0.9085 -58.7701 -26.6223 -18.9143 109.7053 -1.3606 14.5484 31.4866 -0.2739 3.3662 -9.2999 -0.1188 -6.9103 17.9487 -3.0928 -9.6781 10.2495 -1.5143 -5.0243 0.5263 -37.3276 -2.9064 37.2018 32.6902 -20.1920 0.4170 18.4192 -13.4002 2.2185 -0.0000 0.0000 0.0000 -87.7750 -29.3938 66.1194 49.1444 -52.6445 -25.4924 -0.0000 0.0000 -22.3653 9.3712 -24.8172 -3.9625 -7.1250 0.0000 -0.0000 -12.2816 5.3483 11.3532 -0.0000 0.0000 0.0000 74.3460 24.1103 28.7767 -12.5775 20.6651 -2.3020 0.0000 0.0000 27.0466 -10.5928 -8.6832 1.6173 7.1250 -0.0000 -0.0000 13.9905 -38.4501 2.3107
0.00 0.00 0.00 19.1005 -1.6552 -93.1400 0.0000 0.0000 0.0000 -26.2621 -13.4608 9.2985 0.5198 4.6209 12.8305 3.9329 -7.2250 40.3990 0.8463 5.8676 16.4007 0.0000 0.0000 0.0000 -7.4609 6.1723 -51.1023 -20.3901 -19.9964 91.1406 -1.8501 12.5043 32.7660 -0.1606 2.5820 -7.1171 -1.6365 -7.5905 19.3128 -4.0922 -10.9481 11.3751 -1.4463 -5.7659 1.1049 -39.2663 -2.4469 34.7085 29.4689 -19.5936 2.9319 16.9602 -12.7982 2.8663 0.0000 0.0000 0.0000 -89.1748 -33.9795 64.1127 41.0952 -48.7056 -19.2581 -0.0000 0.0000 -16.0878 7.3894 -25.8886 -3.2409 -7.1250 0.0000 -0.0000 -13.4983 4.5075 12.7622 0.0000 0.0000 0.0000 76.9813 26.1367 36.2675 -17.4634 27.4647 -4.2989 0.0000 0.0000 17.7735 -10.4220 -9.9782 1.8254 7.1250 -0.0000 -0.0000 14.4305 -39.7108 1.9278
0.00 0.00 0.00 21.0882 -18.7197 -78.4415 0.0000 0.0000 0.0000 0.1438 -22.9750 -31.0514 9.6342 17.1989 58.2585 1.2521 -8.6236 25.8707 0.0856 1.8877 5.1953 0.0000 0.0000 0.0000 17.8339 6.1719 -51.9462 -11.7405 -18.2788 65.1639 -1.2225 -0.0928 20.8829 -0.1366 2.3822 -6.5631 14.0936 -8.9102 18.7885 0.4996 -9.7754 9.8113 -5.1542 -4.6352 -1.6782 -37.2561 -3.7494 33.4346 29.9838 -19.3380 1.4753 16.8884 -12.4008 2.3223 -0.0000 0.0000 0.0000 -81.5913 -41.9049 58.7901 36.6838 -45.9777 -16.0123 -0.0000 0.0000 -16.9604 -2.8949 -18.4004 0.9145 -7.1250 0.0000 -0.0000 -20.0129 12.3228 16.3341 -0.0000 0.0000 0.0000 75.8038 10.9006 34.3104 -41.3436 48.8461 -19.4449 0.0000 0.0000 17.9738 -24.7691 -11.1873 5.1156 7.1250 -0.0000 -0.0000 2.1197 -42.2582 0.1435
0.00 0.00 0.00 22.5747 -20.1429 -73.2493 0.0000 0.0000 0.0000 6.7808 -19.4482 -47.3531 15.7565 19.5627 77.5055 0.6680 -13.2495 25.3368 0.0358 1.2219 3.3596 0.0000 0.0000 0.0000 20.0538 3.4361 -59.3498 -13.2147 -18.8583 69.7911 -1.7522 -1.0488 24.7370 -0.0215 0.9458 -2.5996 12.4510 -8.4849 20.8271 0.6068 -9.1155 9.5082 -4.0795 -4.4034 -2.7140 -37.1833 -4.2391 32.1159 29.2587 -19.0989 0.6344 16.4684 -12.0464 2.0526 -0.0000 0.0000 0.0000 -71.5217 -42.7159 49.5999 42.1154 -49.2744 -20.0280 -0.0000 0.0000 -21.6952 -1.3225 -17.9385 0.4074 -7.1250 0.0000 -0.0000 -19.0731 12.7136 15.3005 -0.0000 0.0000 0.0000 74.9390 6.1107 35.5714 -50.9278 53.3629 -26.9169 0.0000 0.0000 25.5338 -19.3130 -10.2470 3.5673 7.1250 -0.0000 -0.0000 6.8205 -40.7301 0.7219
0.00 0.00 0.00 23.3268 -22.9619 -68.6154 0.0000 0.0000 0.0000 14.1280 -10.7187 -62.3296 21.8128 19.9210 95.3070 0.9316 -18.6674 32.8969 0.0357 1.2190 3.3515 0.0000 0.0000 0.0000 23.6058 0.0714 -66.8080 -14.1331 -19.1539 72.6105 -2.2120 -4.9532 27.0284 -0.0726 1.7383 -4.7829 11.2294 -8.1798 24.5002 0.8292 -8.4505 9.9556 -3.0091 -4.1283 -3.7323 -37.8053 -5.0433 29.7783 29.6064 -19.0610 -1.0129 16.5070 -11.7621 1.9402 -0.0000 0.0000 0.0000 -57.7066 -45.3157 39.7929 43.6659 -50.0979 -21.2103 -0.0000 0.0000 -21.1307 -0.6990 -17.8288 0.2140 -7.1250 0.0000 -0.0000 -18.6906 12.7970 14.9212 -0.0000 0.0000 0.0000 73.6096 1.5919 37.0309 -65.3998 57.5851 -38.8683 0.0000 0.0000 32.7681 -13.0350 -7.2916 1.6831 7.1250 -0.0000 -0.0000 11.6679 -37.2316 2.2680
